HIERARCHY
ROOT hip
{
  OFFSET 13.2213 79.7684 -42.1671
  CHANNELS 6 Xposition Yposition Zposition Zrotation Xrotation Yrotation
  JOINT abdomen
  {
    OFFSET 0 20.6881 -0.73152
    CHANNELS 3 Zrotation Xrotation Yrotation
    JOINT chest
    {
      OFFSET 0 11.7043 -0.48768
      CHANNELS 3 Zrotation Xrotation Yrotation
      JOINT neck
      {
        OFFSET 0 22.1894 -2.19456
        CHANNELS 3 Zrotation Xrotation Yrotation
        JOINT head
        {
          OFFSET -0.24384 7.07133 1.2192
          CHANNELS 3 Zrotation Xrotation Yrotation
          JOINT leftEye
          {
            OFFSET 4.14528 8.04674 8.04672
            CHANNELS 3 Zrotation Xrotation Yrotation
            End Site
            {
              OFFSET 1 0 0
            }
          }
          JOINT rightEye
          {
            OFFSET -3.6576 8.04674 8.04672
            CHANNELS 3 Zrotation Xrotation Yrotation
            End Site
            {
              OFFSET 1 0 0
            }
          }
        }
      }
      JOINT rCollar
      {
        OFFSET -2.68224 19.2634 -4.8768
        CHANNELS 3 Zrotation Xrotation Yrotation
        JOINT rShldr
        {
          OFFSET -8.77824 -1.95073 1.46304
          CHANNELS 3 Zrotation Xrotation Yrotation
          JOINT rForeArm
          {
            OFFSET -28.1742 -1.7115 0.48768
            CHANNELS 3 Zrotation Xrotation Yrotation
            JOINT rHand
            {
              OFFSET -22.5879 0.773209 7.07136
              CHANNELS 3 Zrotation Xrotation Yrotation
              JOINT rThumb1
              {
                OFFSET -1.2192 -0.487915 3.41376
                CHANNELS 3 Zrotation Xrotation Yrotation
                JOINT rThumb2
                {
                  OFFSET -3.37035 -0.52449 3.41376
                  CHANNELS 3 Zrotation Xrotation Yrotation
                  End Site
                  {
                    OFFSET -1.78271 -1.18214 1.43049
                  }
                }
              }
              JOINT rIndex1
              {
                OFFSET -7.75947 0.938293 5.60832
                CHANNELS 3 Zrotation Xrotation Yrotation
                JOINT rIndex2
                {
                  OFFSET -2.54057 -0.884171 1.56538
                  CHANNELS 3 Zrotation Xrotation Yrotation
                  End Site
                  {
                    OFFSET -1.62519 -0.234802 1.16502
                  }
                }
              }
              JOINT rMid1
              {
                OFFSET -8.24714 1.18213 3.41376
                CHANNELS 3 Zrotation Xrotation Yrotation
                JOINT rMid2
                {
                  OFFSET -3.10165 -0.590103 1.0647
                  CHANNELS 3 Zrotation Xrotation Yrotation
                  End Site
                  {
                    OFFSET -2.48547 -0.328903 0.83742
                  }
                }
              }
              JOINT rRing1
              {
                OFFSET -8.82822 0.546677 1.51678
                CHANNELS 3 Zrotation Xrotation Yrotation
                JOINT rRing2
                {
                  OFFSET -2.60934 -0.819778 -0.0198488
                  CHANNELS 3 Zrotation Xrotation Yrotation
                  End Site
                  {
                    OFFSET -2.33842 -0.294052 0.168128
                  }
                }
              }
              JOINT rPinky1
              {
                OFFSET -8.27202 -0.0477905 -0.4584
                CHANNELS 3 Zrotation Xrotation Yrotation
                JOINT rPinky2
                {
                  OFFSET -1.82734 -0.647385 -0.700984
                  CHANNELS 3 Zrotation Xrotation Yrotation
                  End Site
                  {
                    OFFSET -1.69225 -0.51767 -0.607171
                  }
                }
              }
            }
          }
        }
      }
      JOINT lCollar
      {
        OFFSET 2.68224 19.2634 -4.8768
        CHANNELS 3 Zrotation Xrotation Yrotation
        JOINT lShldr
        {
          OFFSET 8.77824 -1.95073 1.46304
          CHANNELS 3 Zrotation Xrotation Yrotation
          JOINT lForeArm
          {
            OFFSET 28.1742 -1.7115 0.48768
            CHANNELS 3 Zrotation Xrotation Yrotation
            JOINT lHand
            {
              OFFSET 22.5879 0.773209 7.07136
              CHANNELS 3 Zrotation Xrotation Yrotation
              JOINT lThumb1
              {
                OFFSET 1.2192 -0.487915 3.41376
                CHANNELS 3 Zrotation Xrotation Yrotation
                JOINT lThumb2
                {
                  OFFSET 3.37035 -0.52449 3.41376
                  CHANNELS 3 Zrotation Xrotation Yrotation
                  End Site
                  {
                    OFFSET 1.78271 -1.18214 1.43049
                  }
                }
              }
              JOINT lIndex1
              {
                OFFSET 7.75947 0.938293 5.60832
                CHANNELS 3 Zrotation Xrotation Yrotation
                JOINT lIndex2
                {
                  OFFSET 2.54057 -0.884171 1.56538
                  CHANNELS 3 Zrotation Xrotation Yrotation
                  End Site
                  {
                    OFFSET 1.62519 -0.234802 1.16502
                  }
                }
              }
              JOINT lMid1
              {
                OFFSET 8.24714 1.18213 3.41376
                CHANNELS 3 Zrotation Xrotation Yrotation
                JOINT lMid2
                {
                  OFFSET 3.10165 -0.590103 1.0647
                  CHANNELS 3 Zrotation Xrotation Yrotation
                  End Site
                  {
                    OFFSET 2.48547 -0.328903 0.83742
                  }
                }
              }
              JOINT lRing1
              {
                OFFSET 8.82822 0.546677 1.51678
                CHANNELS 3 Zrotation Xrotation Yrotation
                JOINT lRing2
                {
                  OFFSET 2.60934 -0.819778 -0.0198488
                  CHANNELS 3 Zrotation Xrotation Yrotation
                  End Site
                  {
                    OFFSET 2.33842 -0.294052 0.168128
                  }
                }
              }
              JOINT lPinky1
              {
                OFFSET 8.27202 -0.0477905 -0.4584
                CHANNELS 3 Zrotation Xrotation Yrotation
                JOINT lPinky2
                {
                  OFFSET 1.82734 -0.647385 -0.700984
                  CHANNELS 3 Zrotation Xrotation Yrotation
                  End Site
                  {
                    OFFSET 1.69225 -0.51767 -0.607171
                  }
                }
              }
            }
          }
        }
      }
    }
  }
  JOINT rButtock
  {
    OFFSET -8.77824 4.35084 1.2192
    CHANNELS 3 Zrotation Xrotation Yrotation
    JOINT rThigh
    {
      OFFSET 0 -1.70687 -2.19456
      CHANNELS 3 Zrotation Xrotation Yrotation
      JOINT rShin
      {
        OFFSET 0 -36.8199 0.73152
        CHANNELS 3 Zrotation Xrotation Yrotation
        JOINT rFoot
        {
          OFFSET 0.73152 -45.1104 -5.12064
          CHANNELS 3 Zrotation Xrotation Yrotation
          End Site
          {
            OFFSET -1.1221 -3.69964 12.103
          }
        }
      }
    }
  }
  JOINT lButtock
  {
    OFFSET 8.77824 4.35084 1.2192
    CHANNELS 3 Zrotation Xrotation Yrotation
    JOINT lThigh
    {
      OFFSET 0 -1.70687 -2.19456
      CHANNELS 3 Zrotation Xrotation Yrotation
      JOINT lShin
      {
        OFFSET 0 -36.8199 0.73152
        CHANNELS 3 Zrotation Xrotation Yrotation
        JOINT lFoot
        {
          OFFSET -0.73152 -45.1104 -5.12064
          CHANNELS 3 Zrotation Xrotation Yrotation
          End Site
          {
            OFFSET 1.1221 -3.69964 12.103
          }
        }
      }
    }
  }
}
MOTION
Frames:	7
Frame Time:	0.00833333
19.1898 85.3166 134.922 -0.825658 0.000779541 0.0151835 1.08606 -0.00408994 0.0298992 0.299446 -0.00345837 0.0518743 1.08756e-014 7.95139e-016 3.72722e-017 3.24361e-014 9.54166e-015 9.62863e-017 -0 0 0 -0 0 0 5.36604e-015 1.16475e-018 9.93923e-017 1.14909e-013 -3.29237e-016 1.98785e-015 1.9456e-012 -5.80849e-013 3.18055e-014 2.22482e-011 5.81818e-013 8.90555e-014 5.24805e-011 5.78772e-015 2.67167e-013 9.06208e-011 1.27222e-014 4.48458e-013 5.24851e-011 5.96354e-015 2.48083e-013 7.73091 5.47488 0.417314 5.24814e-011 5.96354e-015 2.67167e-013 2.90554 0.965183 0.102902 5.24912e-011 6.26172e-015 2.60805e-013 10.2786 0.731801 0.0259123 5.24801e-011 5.56597e-015 2.63986e-013 2.22167 -0.733487 -0.20892 5.26929e-015 1.94126e-019 -4.96962e-017 1.10183e-013 -3.10601e-016 -1.98785e-016 1.94168e-012 5.80252e-013 -4.13472e-014 2.22386e-011 -5.90515e-013 1.65389e-013 5.24581e-011 -1.5078e-014 2.51264e-013 9.0608e-011 -2.22639e-014 4.42892e-013 5.24497e-011 -1.19271e-014 2.67167e-013 -7.73091 5.47488 -0.417314 5.2458e-011 -1.51076e-014 2.51264e-013 -2.90554 0.965183 -0.102902 5.24439e-011 -1.44119e-014 2.5683e-013 -10.2786 0.731801 -0.0259123 5.24563e-011 -1.43125e-014 2.60805e-013 -2.22167 -0.733487 0.20892 -2.03217e-016 0 -3.88251e-019 1.33868 -5.65666 -0.117791 0.000448814 4.68993 0.031307 -0.524622 0.96492 0.0795474 2.03217e-016 0 3.88251e-019 0.31347 -1.92005 0.0118644 0.00934832 -2.07854 0.0772561 0.509867 3.99665 -0.13996 
20.24 84.0837 123.066 -1.57648 -0.352389 48.6124 0.620437 1.2256 0.166132 0.861359 -0.0953752 0.0841092 -2.39564 -1.00569 -0.914309 1.78889 -2.10821 -0.892498 -0 0 0 -0 0 0 -7.26975e-014 8.4072e-015 -1.18339e-014 0.625592 -6.02536 16.1086 -5.47183 -2.79967 8.17871 0.00256691 -1.14124 -0.160283 -1.086e-011 -7.72332e-011 -1.76901e-010 -1.77425e-011 -1.35717e-010 -3.06954e-010 -1.08555e-011 -7.72257e-011 -1.76916e-010 7.73091 5.47488 0.417314 -1.08587e-011 -7.72302e-011 -1.76901e-010 2.90554 0.965183 0.102902 -1.08485e-011 -7.72318e-011 -1.76905e-010 10.2786 0.731801 0.0259123 -1.08596e-011 -7.72307e-011 -1.76903e-010 2.22167 -0.733487 -0.20892 -7.27874e-014 8.4096e-015 -1.19977e-014 -8.03197 -1.39023 -12.2581 4.99933 -2.45184 -7.60288 -0.0524818 5.08619 -0.704688 -1.04231e-010 -3.39607e-010 2.86579e-011 -1.80211e-010 -5.90646e-010 5.17204e-011 -1.04237e-010 -3.39605e-010 2.8671e-011 -7.73091 5.47488 -0.417314 -1.0423e-010 -3.39606e-010 2.8659e-011 -2.90554 0.965183 -0.102902 -1.04242e-010 -3.39606e-010 2.8663e-011 -10.2786 0.731801 -0.0259123 -1.04231e-010 -3.39605e-010 2.8666e-011 -2.22167 -0.733487 0.20892 -2.03217e-016 0 -3.88251e-019 -0.557908 -10.8136 -2.5615 0.000418035 15.2954 0.195175 -0.760078 -1.27359 -2.62478 2.03217e-016 0 3.88251e-019 1.61336 -5.23977 -0.52332 -0.00875329 7.91026 -0.0751412 0.374459 -1.04104 -0.652361 
20.2358 84.0957 122.437 -2.12565 0.192615 100.028 0.161451 2.52844 0.321946 1.44883 -0.191427 0.121667 -4.96224 -2.06746 -1.8762 3.59813 -4.3396 -1.82979 -0 0 0 -0 0 0 -1.55645e-013 1.57259e-014 -2.33075e-014 4.83498 -10.7807 33.6545 -10.3951 -5.56815 16.885 -0.00169227 -2.32478 -0.326725 -7.31665e-011 -1.88909e-010 -3.72087e-010 -1.24284e-010 -3.3118e-010 -6.4558e-010 -7.3162e-011 -1.88894e-010 -3.72099e-010 7.73091 5.47488 0.417314 -7.31646e-011 -1.88903e-010 -3.72087e-010 2.90554 0.965183 0.102902 -7.31538e-011 -1.88907e-010 -3.7209e-010 10.2786 0.731801 0.0259123 -7.31652e-011 -1.88904e-010 -3.72089e-010 2.22167 -0.733487 -0.20892 -1.5573e-013 1.57321e-014 -2.34876e-014 -17.1406 -2.63899 -25.2423 9.58604 -4.90202 -15.6885 0.0301078 10.4498 -1.46686 -2.8904e-010 -7.51086e-010 5.13568e-011 -4.99726e-010 -1.30664e-009 9.36075e-011 -2.89044e-010 -7.51085e-010 5.13668e-011 -7.73091 5.47488 -0.417314 -2.89039e-010 -7.51085e-010 5.1359e-011 -2.90554 0.965183 -0.102902 -2.89047e-010 -7.51084e-010 5.13614e-011 -10.2786 0.731801 -0.0259123 -2.89039e-010 -7.51082e-010 5.13636e-011 -2.22167 -0.733487 0.20892 -2.03217e-016 0 -3.88251e-019 -3.03811 -16.1836 -5.26645 -0.0733945 26.5749 0.397746 -1.23659 -3.62206 -5.47399 2.03217e-016 0 3.88251e-019 2.94122 -8.77128 -1.08613 0.032007 18.4959 -0.248327 0.13762 -6.35093 -1.17877 
20.1384 84.1015 121.831 -3.37805 1.32375 145.793 -0.328383 3.6849 0.439391 1.9855 -0.279208 0.148581 -7.28328 -3.01398 -2.74631 5.16869 -6.31847 -2.69205 -0 0 0 -0 0 0 -2.28825e-013 2.52193e-014 -3.57005e-014 10.883 -12.4462 49.6095 -14.081 -7.71587 24.7455 -0.0114836 -3.42361 -0.481612 -1.37541e-010 -2.31711e-010 -5.31236e-010 -2.34469e-010 -4.07177e-010 -9.21758e-010 -1.37537e-010 -2.31689e-010 -5.31245e-010 7.73091 5.47488 0.417314 -1.37539e-010 -2.31702e-010 -5.31236e-010 2.90554 0.965183 0.102902 -1.37528e-010 -2.31708e-010 -5.31238e-010 10.2786 0.731801 0.0259123 -1.37539e-010 -2.31703e-010 -5.31237e-010 2.22167 -0.733487 -0.20892 -2.28901e-013 2.52284e-014 -3.58938e-014 -25.7473 -3.41798 -36.8397 13.0916 -6.8386 -22.9602 0.22945 15.2492 -2.18262 -4.17608e-010 -1.01879e-009 8.54713e-011 -7.21848e-010 -1.77189e-009 1.54275e-010 -4.1761e-010 -1.01879e-009 8.54787e-011 -7.73091 5.47488 -0.417314 -4.17607e-010 -1.01879e-009 8.54743e-011 -2.90554 0.965183 -0.102902 -4.17613e-010 -1.01879e-009 8.54753e-011 -10.2786 0.731801 -0.0259123 -4.17606e-010 -1.01879e-009 8.54765e-011 -2.22167 -0.733487 0.20892 -2.03217e-016 0 -3.88251e-019 -5.7524 -20.9787 -7.83587 -0.222124 36.5049 0.625006 -1.86521 -5.698 -8.0716 2.03217e-016 0 3.88251e-019 4.02349 -11.8752 -1.62184 0.129496 27.8872 -0.427314 -0.17086 -11.1118 -1.70958 
19.9595 84.1026 121.169 -4.81784 1.89644 177.465 -0.880486 4.47553 0.460013 2.3949 -0.346313 0.148882 -8.92345 -3.6752 -3.38377 6.27971 -7.67166 -3.35309 -0 0 0 -0 0 0 -2.77582e-013 4.01495e-014 -5.03919e-014 15.6864 -11.8268 60.4514 -16.2923 -8.96172 30.2923 -0.0228452 -4.31075 -0.606994 -2.07086e-010 -1.02329e-010 -6.00292e-010 -3.53761e-010 -1.84507e-010 -1.04181e-009 -2.07082e-010 -1.02304e-010 -6.00298e-010 7.73091 5.47488 0.417314 -2.07084e-010 -1.02319e-010 -6.00292e-010 2.90554 0.965183 0.102902 -2.07073e-010 -1.02326e-010 -6.00292e-010 10.2786 0.731801 0.0259123 -2.07084e-010 -1.0232e-010 -6.00292e-010 2.22167 -0.733487 -0.20892 -2.77642e-013 4.01592e-014 -5.05907e-014 -32.0078 -3.73015 -44.9106 15.2244 -7.9861 -28.0517 0.446356 18.6468 -2.71827 -4.05573e-010 -9.27062e-010 1.48125e-010 -7.00486e-010 -1.61028e-009 2.61895e-010 -4.05574e-010 -9.2706e-010 1.48131e-010 -7.73091 5.47488 -0.417314 -4.05571e-010 -9.27059e-010 1.48128e-010 -2.90554 0.965183 -0.102902 -4.05575e-010 -9.27059e-010 1.48128e-010 -10.2786 0.731801 -0.0259123 -4.0557e-010 -9.27055e-010 1.48128e-010 -2.22167 -0.733487 0.20892 -2.03217e-016 0 -3.88251e-019 -8.0531 -24.4691 -9.73975 -0.381866 43.0627 0.817172 -2.43553 -7.14246 -10.0022 2.03217e-016 0 3.88251e-019 4.62292 -13.9136 -2.0649 0.238568 34.2937 -0.572127 -0.484712 -14.5036 -2.22106 
19.856 84.101 120.514 -5.17275 1.87953 -170.625 -1.58204 4.73527 0.330977 2.64172 -0.38616 0.10779 -9.58179 -3.94836 -3.68782 6.8209 -8.12524 -3.7114 -0 0 0 -0 0 0 -2.97413e-013 6.94471e-014 -8.1803e-014 17.4059 -11.32 64.2846 -17.0944 -9.39152 32.5005 -0.0318651 -4.97336 -0.700803 -2.79851e-010 4.69215e-010 -5.216e-010 -4.78631e-010 8.04348e-010 -9.05938e-010 -2.79848e-010 4.69237e-010 -5.21606e-010 7.73091 5.47488 0.417314 -2.7985e-010 4.69224e-010 -5.21601e-010 2.90554 0.965183 0.102902 -2.79841e-010 4.69218e-010 -5.21601e-010 10.2786 0.731801 0.0259123 -2.79851e-010 4.69223e-010 -5.21598e-010 2.22167 -0.733487 -0.20892 -2.9744e-013 6.94534e-014 -8.19929e-014 -34.635 -3.87077 -48.0125 15.9757 -8.36497 -30.0063 0.557497 20.1106 -2.95779 -1.00931e-010 -8.2318e-011 3.10905e-010 -1.72016e-010 -1.34196e-010 5.37539e-010 -1.0093e-010 -8.231e-011 3.10913e-010 -7.73091 5.47488 -0.417314 -1.00929e-010 -8.23142e-011 3.10907e-010 -2.90554 0.965183 -0.102902 -1.00932e-010 -8.23135e-011 3.10907e-010 -10.2786 0.731801 -0.0259123 -1.00928e-010 -8.23103e-011 3.10905e-010 -2.22167 -0.733487 0.20892 -2.03217e-016 0 -3.88251e-019 -9.34114 -26.2642 -10.5045 -0.441971 44.9279 0.87566 -2.73762 -7.76808 -10.9838 2.03217e-016 0 3.88251e-019 4.54944 -14.469 -2.36734 0.288248 36.5058 -0.624024 -0.724969 -15.9823 -2.68847 
19.6212 84.0221 119.912 -4.56421 1.69111 -172.836 -2.38758 4.61663 0.0956866 2.77163 -0.406456 0.0373271 -9.53128 -3.94454 -3.7533 6.97124 -7.93895 -3.85098 -0 0 0 -0 0 0 -2.96332e-013 1.08686e-013 -1.24514e-013 16.8485 -11.7241 63.2942 -17.0276 -9.3652 32.3005 -0.0381826 -5.47216 -0.771493 -3.55108e-010 1.34701e-009 -3.38405e-010 -6.07826e-010 2.32391e-009 -5.89034e-010 -3.55106e-010 1.34703e-009 -3.38411e-010 7.73091 5.47488 0.417314 -3.55108e-010 1.34702e-009 -3.38407e-010 2.90554 0.965183 0.102902 -3.55103e-010 1.34701e-009 -3.38406e-010 10.2786 0.731801 0.0259123 -3.5511e-010 1.34702e-009 -3.38401e-010 2.22167 -0.733487 -0.20892 -2.96315e-013 1.08686e-013 -1.24685e-013 -34.5966 -4.02248 -47.5654 15.8539 -8.28925 -29.7022 0.558682 20.194 -2.97036 4.08156e-010 1.2884e-009 5.4234e-010 7.10759e-010 2.26e-009 9.2833e-010 4.08158e-010 1.28842e-009 5.42351e-010 -7.73091 5.47488 -0.417314 4.08159e-010 1.2884e-009 5.4234e-010 -2.90554 0.965183 -0.102902 4.08155e-010 1.2884e-009 5.4234e-010 -10.2786 0.731801 -0.0259123 4.08159e-010 1.28841e-009 5.42336e-010 -2.22167 -0.733487 0.20892 -2.03217e-016 0 -3.88251e-019 -9.76918 -26.8749 -10.385 -0.402105 43.4403 0.814794 -2.79798 -7.8195 -11.2781 2.03217e-016 0 3.88251e-019 4.01749 -13.9656 -2.56336 0.275564 35.7229 -0.595333 -0.881958 -16.0953 -3.11297 
